<svg version="1.1" width="305.308" height="305.308" viewBox="0 0 305.308 305.308" xmlns="http://www.w3.org/2000/svg" xmlns:xlink="http://www.w3.org/1999/xlink" id="Capa_1" overflow="hidden"><g><g><path d=" M 91.699 44.068 C 86.518 39.599 79.789 36.883 72.413 36.883 C 56.084 36.883 42.849 50.124 42.849 66.45 C 42.849 70.877 43.851 75.066 45.596 78.836 C 58.378 64.341 74.042 52.441 91.699 44.068 Z" stroke="none" stroke-width="1" stroke-linecap="butt" fill="#727272" fill-opacity="1"/><path d=" M 152.656 305.308 C 225.649 305.308 284.825 246.132 284.825 173.141 C 284.825 107.773 237.362 53.53 175.017 42.896 L 175.017 37.521 L 175.017 32.138 L 175.017 18.124 L 186.482 18.124 C 190.272 18.124 193.348 14.069 193.348 9.062 C 193.348 4.058 190.272 0 186.482 0 L 118.824 0 C 115.029 0 111.952 4.058 111.952 9.062 C 111.952 14.069 115.028 18.124 118.824 18.124 L 130.283 18.124 L 130.283 32.133 L 130.283 37.516 L 130.283 42.891 C 119.152 44.791 108.506 48.077 98.512 52.574 C 80.435 60.703 64.523 72.761 51.86 87.682 C 32.305 110.724 20.481 140.54 20.481 173.136 C 20.487 246.132 79.663 305.308 152.656 305.308 Z M 74.79 95.899 C 82.228 88.401 90.733 81.969 100.067 76.854 C 115.692 68.284 133.613 63.391 152.661 63.391 C 213.181 63.391 262.409 112.625 262.409 173.141 C 262.409 233.659 213.18 282.892 152.661 282.892 C 92.144 282.892 42.911 233.659 42.911 173.141 C 42.906 143.043 55.098 115.747 74.79 95.899 Z" stroke="none" stroke-width="1" stroke-linecap="butt" fill="#727272" fill-opacity="1"/><path d=" M 86.296 239.499 C 90.542 243.745 95.194 247.587 100.184 250.958 C 102.68 252.641 105.264 254.215 107.92 255.654 C 121.217 262.878 136.456 266.984 152.651 266.984 C 154.676 266.984 156.685 266.917 158.676 266.787 C 168.639 266.161 178.182 263.975 187.063 260.47 C 190.615 259.073 194.063 257.456 197.387 255.65 C 200.049 254.206 202.627 252.641 205.123 250.954 C 210.115 247.577 214.765 243.746 219.011 239.494 C 235.995 222.511 246.496 199.054 246.496 173.137 C 246.496 147.223 235.995 123.759 219.011 106.777 C 214.765 102.529 210.115 98.692 205.123 95.318 C 202.627 93.632 200.044 92.064 197.387 90.619 C 194.063 88.812 190.615 87.207 187.063 85.801 C 178.187 82.301 168.639 80.111 158.676 79.482 C 156.685 79.352 154.676 79.29 152.651 79.29 C 136.451 79.29 121.217 83.394 107.92 90.615 C 105.258 92.059 102.68 93.629 100.184 95.314 C 95.19 98.687 90.537 102.524 86.296 106.773 C 69.312 123.754 58.808 147.214 58.808 173.133 C 58.813 199.058 69.317 222.515 86.296 239.499 Z M 152.656 98.462 L 152.656 168.771 L 81.974 195.936 C 69.462 147.196 103.676 98.462 152.656 98.462 Z" stroke="none" stroke-width="1" stroke-linecap="butt" fill="#727272" fill-opacity="1"/></g></g><g></g><g></g><g></g><g></g><g></g><g></g><g></g><g></g><g></g><g></g><g></g><g></g><g></g><g></g><g></g></svg>