<svg version="1.1" width="444.819" height="444.819" viewBox="0 0 444.819 444.819" xmlns="http://www.w3.org/2000/svg" xmlns:xlink="http://www.w3.org/1999/xlink" id="Capa_1" overflow="hidden"><g><path d=" M 433.968 278.657 L 248.387 92.79 C 240.968 85.746 232.307 82.224 222.41 82.224 C 212.322 82.224 203.758 85.745 196.713 92.79 L 10.848 278.657 C 3.615 285.887 0 294.549 0 304.637 C 0 314.917 3.619 323.48 10.848 330.33 L 32.259 351.743 C 39.113 358.973 47.679 362.595 57.956 362.595 C 68.234 362.595 76.798 358.974 83.653 351.743 L 222.41 213.271 L 361.168 351.74 C 368.016 358.968 376.581 362.592 386.868 362.592 C 396.95 362.592 405.615 358.968 412.843 351.74 L 434.252 330.328 C 441.295 323.285 444.819 314.72 444.819 304.635 C 444.819 294.545 441.205 285.884 433.968 278.657 Z" stroke="#000000" stroke-width="16.1818" stroke-linecap="butt" stroke-opacity="1" fill="#548235" fill-opacity="1"/></g><g></g><g></g><g></g><g></g><g></g><g></g><g></g><g></g><g></g><g></g><g></g><g></g><g></g><g></g><g></g></svg>